<?xml version="1.0" standalone="no"?>
<!DOCTYPE svg PUBLIC "-//W3C//DTD SVG 20010904//EN"
 "http://www.w3.org/TR/2001/REC-SVG-20010904/DTD/svg10.dtd">
<svg version="1.0" xmlns="http://www.w3.org/2000/svg"
 width="700.000000pt" height="700.000000pt" viewBox="0 0 700.000000 700.000000"
 preserveAspectRatio="xMidYMid meet">
<metadata>
Created by potrace 1.14, written by Peter Selinger 2001-2017
</metadata>
<g transform="translate(0.000000,700.000000) scale(0.100000,-0.100000)"
fill="#000000" stroke="none">
<path d="M4157 5596 c16 -13 48 -29 73 -36 43 -12 160 -68 270 -130 35 -20 46
-23 30 -10 -25 21 -377 200 -393 200 -5 0 4 -11 20 -24z"/>
<path d="M2331 5524 c-68 -36 -163 -91 -210 -121 -80 -52 -231 -169 -231 -179
0 -2 46 31 103 74 149 115 352 232 402 232 8 0 15 4 15 9 0 5 15 18 33 30 63
41 10 19 -112 -45z"/>
<path d="M3248 5445 c-2 -1 -55 -5 -118 -9 -63 -4 -155 -15 -203 -24 -80 -15
-90 -20 -105 -47 -9 -16 -20 -32 -25 -33 -4 -2 -4 -8 -1 -13 3 -6 -1 -18 -9
-27 -8 -9 -23 -41 -33 -69 -10 -29 -22 -53 -26 -53 -5 0 -8 -9 -8 -19 0 -11
-4 -23 -10 -26 -5 -3 -10 -14 -10 -24 0 -10 -7 -24 -15 -31 -8 -7 -12 -16 -9
-22 3 -5 1 -14 -4 -21 -10 -13 -26 -67 -23 -80 1 -4 -5 -15 -13 -23 -9 -8 -13
-21 -10 -28 3 -8 0 -17 -5 -21 -6 -3 -9 -11 -6 -16 4 -5 3 -14 -1 -21 -4 -7
-8 -24 -9 -39 -1 -15 -9 -34 -18 -44 -9 -9 -17 -21 -17 -26 0 -14 20 -11 20 4
0 6 5 4 11 -6 7 -12 17 -16 30 -12 14 5 19 2 19 -10 0 -12 6 -16 20 -12 14 3
24 -1 31 -15 7 -13 17 -18 30 -15 12 3 19 0 19 -9 0 -8 10 -14 25 -14 14 0 25
-4 25 -9 0 -5 10 -13 23 -17 12 -3 30 -13 39 -21 9 -8 21 -12 26 -9 6 3 12 -1
16 -9 3 -8 16 -15 28 -15 13 0 29 -9 36 -20 7 -12 17 -18 23 -14 6 3 16 -1 22
-9 7 -9 18 -17 26 -19 8 -2 23 -11 33 -21 11 -10 24 -17 31 -14 6 2 19 -5 29
-15 9 -9 24 -15 33 -12 9 4 15 0 15 -10 0 -8 11 -18 25 -22 14 -3 25 -10 25
-14 0 -5 10 -12 22 -16 12 -3 28 -13 36 -21 8 -8 21 -12 28 -9 7 3 16 1 19 -4
3 -4 16 -5 29 -2 27 8 161 89 187 115 11 9 26 17 34 17 9 0 18 7 21 15 4 8 15
15 25 15 11 0 22 7 25 15 4 8 14 15 24 15 10 0 23 7 30 15 7 8 19 15 27 15 7
0 16 7 19 15 4 8 14 15 24 15 10 0 26 7 34 16 9 8 16 12 16 8 0 -4 8 0 18 8 9
9 27 19 40 22 12 4 22 11 22 16 0 4 11 11 25 14 14 4 25 11 25 17 0 6 4 8 9 4
5 -3 16 2 24 10 9 8 19 15 24 15 19 0 63 26 63 36 0 12 -24 86 -39 119 -13 28
-24 58 -26 70 -5 30 -149 332 -164 345 -3 3 -7 11 -9 19 -5 24 -66 110 -74
105 -4 -3 -10 1 -13 8 -3 8 -21 13 -48 12 -23 -1 -46 1 -50 3 -8 5 -404 13
-409 8z m-294 -850 c-4 -8 -10 -12 -15 -9 -11 6 -2 24 11 24 5 0 7 -7 4 -15z
m151 -65 c85 -46 100 -57 103 -78 l3 -22 -35 21 c-20 11 -36 25 -36 30 0 5 -9
9 -20 9 -11 0 -25 8 -31 19 -7 11 -19 16 -31 13 -13 -3 -18 1 -18 17 0 18 -4
20 -25 15 -18 -4 -25 -2 -25 8 0 26 12 28 44 9 17 -11 49 -29 71 -41z m152
-95 c3 -9 3 -19 -1 -22 -8 -9 -37 18 -30 28 8 14 24 11 31 -6z m58 -41 c14
-14 24 -28 21 -31 -2 -3 -14 5 -25 16 -12 12 -26 21 -32 21 -5 0 -7 5 -4 10 9
14 11 13 40 -16z"/>
<path d="M4580 5381 c14 -11 30 -21 35 -21 11 0 -7 14 -40 31 -13 7 -12 3 5
-10z"/>
<path d="M4676 5313 c12 -10 41 -33 65 -51 l44 -34 -45 42 c-25 22 -54 46 -65
51 -18 9 -18 9 1 -8z"/>
<path d="M4820 5195 c19 -19 36 -35 39 -35 3 0 -10 16 -29 35 -19 19 -36 35
-39 35 -3 0 10 -16 29 -35z"/>
<path d="M4878 5144 c13 -25 42 -50 42 -37 0 5 -12 20 -26 34 -24 21 -26 22
-16 3z"/>
<path d="M5106 4813 c64 -144 116 -295 112 -326 -2 -14 -19 -30 -45 -45 -30
-16 -41 -19 -37 -9 3 8 16 20 30 27 13 7 24 20 24 29 0 14 2 14 10 1 8 -13 10
-13 10 1 0 15 -42 43 -65 44 -5 0 -15 16 -22 35 l-11 35 -1 -40 c-1 -23 4 -46
11 -53 9 -9 7 -16 -10 -32 -12 -12 -22 -28 -22 -36 0 -8 -4 -12 -10 -9 -6 3
-7 -1 -3 -10 5 -13 7 -14 14 -3 5 7 9 9 9 3 0 -5 5 -3 10 5 8 13 10 12 10 -2
0 -10 -7 -18 -15 -18 -8 0 -15 -4 -15 -9 0 -13 -33 -7 -38 7 -2 7 -8 12 -14
12 -7 0 -6 -5 1 -14 14 -17 -2 -31 -25 -22 -8 3 -12 1 -9 -4 3 -5 1 -18 -4
-27 -6 -10 -11 -13 -11 -6 0 7 -7 10 -15 7 -8 -4 -12 -11 -8 -17 4 -6 -2 -8
-15 -5 -16 4 -19 2 -15 -10 5 -11 2 -14 -9 -9 -10 3 -19 0 -22 -9 -3 -9 -10
-13 -15 -10 -9 6 -26 -22 -22 -37 1 -5 -3 -6 -9 -2 -6 3 -8 10 -5 15 3 4 -3 6
-13 3 -11 -2 -26 3 -36 12 -19 19 -21 12 -4 -18 14 -26 17 -36 24 -102 3 -27
7 -61 9 -75 6 -48 17 -185 19 -261 2 -41 5 -80 8 -85 2 -5 6 -102 7 -217 2
-192 1 -208 -16 -214 -25 -9 -73 -50 -66 -56 3 -3 15 5 27 18 28 32 68 41 89
21 8 -9 20 -16 26 -16 6 0 11 -4 11 -8 0 -5 25 -26 55 -46 30 -21 52 -42 50
-46 -3 -5 0 -12 6 -16 8 -4 9 -3 5 4 -14 23 10 11 50 -26 23 -20 68 -59 100
-87 31 -27 66 -59 76 -69 10 -11 19 -18 21 -15 15 17 77 133 77 143 0 6 4 16
8 22 9 9 42 88 47 114 2 8 12 42 23 75 26 80 51 231 54 325 3 71 -31 273 -51
310 -5 9 -12 36 -16 60 -4 24 -11 51 -15 60 -11 22 -26 60 -40 100 -21 61 -75
181 -99 220 -18 28 -41 88 -48 121 -3 18 -12 45 -20 59 -7 14 -13 29 -13 33 0
20 -109 245 -122 253 -5 3 3 -21 18 -53z m61 -309 c-3 -3 -12 -4 -19 -1 -8 3
-5 6 6 6 11 1 17 -2 13 -5z m-7 -28 c0 -3 -4 -8 -10 -11 -5 -3 -10 -1 -10 4 0
6 5 11 10 11 6 0 10 -2 10 -4z"/>
<path d="M5136 4602 c-8 -13 5 -52 16 -46 5 3 4 11 -2 19 -7 8 -9 19 -5 25 3
5 4 10 1 10 -3 0 -7 -4 -10 -8z"/>
<path d="M5177 4553 c-4 -3 -7 -11 -7 -17 0 -6 5 -5 12 2 6 6 9 14 7 17 -3 3
-9 2 -12 -2z"/>
<path d="M1428 4343 c-20 -24 -129 -315 -157 -422 -13 -46 -33 -139 -47 -208
-21 -112 -22 -128 -9 -161 8 -20 21 -64 29 -97 35 -139 80 -256 158 -410 22
-44 41 -81 43 -83 5 -6 55 22 55 30 0 5 5 6 10 3 6 -3 10 1 10 10 0 9 5 13 10
10 6 -3 10 1 10 9 0 10 6 13 17 9 12 -5 15 -2 10 10 -4 11 -1 17 8 17 8 0 15
5 15 10 0 6 7 10 16 10 10 0 14 5 10 15 -4 11 0 15 12 13 10 -2 16 3 14 10 -1
7 5 12 15 10 10 -2 17 2 16 10 -2 6 4 12 12 12 8 0 15 6 15 14 0 8 8 13 18 12
10 0 16 5 14 13 -2 9 3 11 13 7 9 -3 18 1 21 9 4 8 12 15 20 15 8 0 14 7 14
15 0 8 7 15 15 15 9 0 18 6 21 14 3 8 11 13 19 10 19 -8 28 27 10 46 -11 13
-12 19 -3 28 9 9 10 17 2 30 -6 9 -9 42 -8 72 2 30 -2 60 -7 66 -7 8 -6 14 1
19 6 3 7 12 3 18 -4 6 -8 128 -9 272 0 143 -4 271 -8 285 -5 21 -5 22 3 5 8
-17 10 -14 10 18 1 20 2 40 4 45 1 4 -8 8 -20 10 -13 2 -23 8 -23 14 0 5 -6 8
-14 5 -8 -3 -17 1 -20 9 -3 9 -10 12 -16 9 -5 -3 -10 -1 -10 4 0 6 -9 11 -20
11 -11 0 -20 5 -20 11 0 6 -7 9 -15 5 -9 -3 -15 0 -15 9 0 9 -6 12 -15 9 -8
-4 -15 -1 -15 6 0 7 -7 10 -15 6 -8 -3 -15 -1 -15 4 0 4 -13 11 -30 15 -16 4
-30 11 -30 16 0 6 -4 7 -10 4 -5 -3 -10 -1 -10 5 0 6 -4 9 -9 6 -5 -4 -11 -2
-13 4 -1 5 -19 12 -39 15 -26 4 -39 1 -51 -12z"/>
<path d="M4745 4331 c-3 -5 -1 -12 5 -16 5 -3 10 1 10 9 0 18 -6 21 -15 7z"/>
<path d="M5402 4300 c0 -8 6 -31 13 -50 7 -19 13 -28 13 -20 0 8 -6 31 -13 50
-7 19 -13 28 -13 20z"/>
<path d="M5431 4200 c0 -8 4 -24 9 -35 5 -13 9 -14 9 -5 0 8 -4 24 -9 35 -5
13 -9 14 -9 5z"/>
<path d="M5452 4115 c0 -11 3 -29 8 -40 11 -25 11 1 0 35 -6 20 -8 21 -8 5z"/>
<path d="M5472 4030 c0 -14 2 -19 5 -12 2 6 2 18 0 25 -3 6 -5 1 -5 -13z"/>
<path d="M5482 3970 c0 -14 2 -19 5 -12 2 6 2 18 0 25 -3 6 -5 1 -5 -13z"/>
<path d="M5492 3910 c0 -14 2 -19 5 -12 2 6 2 18 0 25 -3 6 -5 1 -5 -13z"/>
<path d="M5503 3415 c0 -22 2 -30 4 -17 2 12 2 30 0 40 -3 9 -5 -1 -4 -23z"/>
<path d="M5493 3335 c0 -22 2 -30 4 -17 2 12 2 30 0 40 -3 9 -5 -1 -4 -23z"/>
<path d="M3323 3294 c-3 -8 -9 -11 -14 -8 -11 7 -51 -21 -42 -29 3 -4 -3 -7
-15 -7 -11 0 -27 -8 -34 -19 -7 -10 -23 -21 -35 -25 -13 -4 -23 -14 -23 -22 0
-17 26 -19 37 -1 12 18 70 57 85 57 13 -1 7 -7 -42 -40 -12 -8 -36 -25 -53
-37 -38 -28 -47 -29 -40 -3 3 11 1 20 -5 20 -17 0 -34 -29 -28 -47 4 -9 1 -20
-6 -25 -21 -13 -31 -9 -18 7 7 9 10 18 7 21 -7 8 -47 -14 -47 -26 0 -6 -9 -10
-20 -10 -11 0 -23 -7 -26 -15 -4 -8 -14 -15 -24 -15 -24 0 -42 -24 -34 -46 6
-18 6 -18 -8 0 -15 19 -15 19 -36 -2 -12 -12 -29 -22 -38 -22 -9 0 -18 -9 -21
-21 -3 -12 -11 -18 -20 -15 -7 3 -22 -3 -33 -14 -11 -11 -20 -18 -20 -15 0 3
-9 1 -20 -5 -11 -6 -18 -15 -15 -20 3 -5 1 -11 -5 -15 -5 -3 -10 -1 -10 5 0 8
-6 8 -20 0 -11 -6 -17 -16 -14 -22 5 -7 2 -9 -8 -6 -8 4 -19 3 -25 0 -14 -10
-24 -70 -13 -77 5 -3 7 -12 4 -19 -3 -8 0 -17 6 -21 8 -5 8 -11 0 -20 -7 -9
-6 -16 4 -24 8 -7 12 -19 9 -27 -3 -8 0 -21 7 -29 6 -8 9 -18 6 -23 -3 -6 1
-15 9 -22 8 -7 12 -17 9 -22 -6 -9 1 -30 28 -81 5 -10 6 -22 3 -26 -2 -5 2
-14 10 -21 8 -7 12 -16 10 -21 -3 -4 -2 -16 3 -26 18 -34 43 -101 43 -113 0
-3 7 -12 15 -21 8 -9 11 -18 8 -21 -3 -4 9 -37 26 -75 18 -37 37 -79 43 -93 6
-14 12 -27 13 -28 6 -10 92 -22 199 -28 70 -4 123 -11 127 -18 5 -7 8 -7 8 -1
0 6 26 11 60 11 33 1 57 -3 54 -7 -3 -5 5 -5 18 0 13 4 64 9 113 10 100 2 165
7 272 19 62 7 75 12 102 40 16 18 30 35 30 37 1 3 1 12 1 21 0 8 5 12 10 9 6
-3 10 1 10 10 0 8 5 24 10 35 6 11 15 29 20 40 6 11 10 29 10 40 0 11 5 20 10
20 6 0 10 12 10 26 0 14 4 23 8 20 5 -3 9 1 9 8 0 15 44 128 52 136 3 3 6 11
7 18 3 39 5 43 16 36 6 -4 8 -3 5 3 -7 11 7 64 24 97 8 14 8 16 -3 10 -10 -6
-10 -5 -2 7 12 14 44 149 44 178 -1 15 -61 61 -80 61 -4 0 -11 7 -14 16 -4 10
-13 13 -25 9 -13 -4 -20 0 -24 15 -3 11 -12 20 -20 20 -8 0 -17 7 -21 15 -3 8
-14 15 -25 15 -10 0 -21 7 -25 15 -3 8 -13 15 -23 15 -10 0 -24 9 -31 20 -7
12 -17 18 -23 14 -6 -3 -16 1 -22 9 -7 9 -19 17 -27 19 -8 2 -21 11 -28 21 -7
9 -20 17 -28 17 -8 0 -23 9 -34 20 -12 12 -25 18 -30 15 -6 -4 -10 -1 -10 5 0
6 -12 16 -27 23 -16 6 -35 18 -43 25 -8 7 -18 11 -22 10 -3 -2 -18 8 -32 21
-14 14 -29 21 -33 18 -3 -4 -12 2 -20 13 -7 10 -20 17 -27 14 -7 -3 -16 1 -19
9 -7 20 -76 20 -84 1z m-3 -28 c0 -3 -4 -8 -10 -11 -5 -3 -10 -1 -10 4 0 6 5
11 10 11 6 0 10 -2 10 -4z m-250 -180 c0 -2 -7 -7 -16 -10 -8 -3 -12 -2 -9 4
6 10 25 14 25 6z"/>
<path d="M5482 3270 c0 -14 2 -19 5 -12 2 6 2 18 0 25 -3 6 -5 1 -5 -13z"/>
<path d="M4740 3229 c0 -5 5 -7 10 -4 6 3 10 8 10 11 0 2 -4 4 -10 4 -5 0 -10
-5 -10 -11z"/>
<path d="M5472 3210 c0 -19 2 -27 5 -17 2 9 2 25 0 35 -3 9 -5 1 -5 -18z"/>
<path d="M4709 3203 c-13 -16 -12 -17 4 -4 16 13 21 21 13 21 -2 0 -10 -8 -17
-17z"/>
<path d="M5462 3150 c0 -14 2 -19 5 -12 2 6 2 18 0 25 -3 6 -5 1 -5 -13z"/>
<path d="M5452 3100 c0 -14 2 -19 5 -12 2 6 2 18 0 25 -3 6 -5 1 -5 -13z"/>
<path d="M5432 3028 c-6 -23 -9 -44 -7 -46 2 -2 9 15 15 38 6 23 9 44 7 46 -2
3 -9 -14 -15 -38z"/>
<path d="M4984 2219 c-127 -142 -538 -399 -676 -424 -26 -5 -38 -13 -38 -24 0
-33 -200 -191 -313 -247 -127 -62 -406 -100 -677 -91 -232 7 -352 29 -466 82
-93 43 -217 119 -257 156 -12 11 -37 29 -54 40 -18 12 -33 27 -33 35 0 8 -10
14 -25 14 -46 0 -221 80 -357 163 -38 23 -79 48 -91 54 -12 7 -71 51 -132 97
-60 46 -112 82 -115 79 -7 -7 174 -173 189 -173 3 0 20 -13 36 -28 17 -15 38
-31 48 -35 10 -4 15 -12 11 -18 -4 -7 -2 -10 6 -7 7 2 25 -8 40 -22 15 -14 40
-32 56 -40 16 -8 32 -19 36 -25 4 -5 8 -6 8 -2 0 4 15 -3 33 -17 43 -33 227
-126 250 -126 9 0 17 -5 17 -10 0 -6 3 -9 8 -8 9 2 78 -30 112 -53 14 -9 74
-35 133 -59 59 -23 105 -45 102 -48 -11 -11 39 -52 63 -52 14 0 22 -3 18 -7
-11 -11 95 -31 250 -47 171 -18 422 -7 568 23 106 22 145 39 173 74 20 25 55
43 158 80 323 116 594 286 833 521 84 83 122 128 122 144 0 28 -11 28 -36 1z"/>
</g>
</svg>
